{
  "source": "C:\\Users\\Peter\\Desktop\\stuff\\MIUN\\quantitative_research\\video_compression\\videos\\BVI-HD\\BVI-HD_CDVL_videos\\ORIG\\Hamster_1920x1080_60fps.mp4",
  "output": "C:\\Users\\Peter\\Desktop\\stuff\\MIUN\\quantitative_research\\video_compression\\compressed_videos\\BVI-HD\\hevc\\4\\Hamster_1920x1080_60fps_hevc.mp4",
  "codec": "hevc",
  "ok": "Input #0, mov,mp4,m4a,3gp,3g2,mj2, from 'C:\\Users\\Peter\\Desktop\\stuff\\MIUN\\quantitative_research\\video_compression\\videos\\BVI-HD\\BVI-HD_CDVL_videos\\ORIG\\Hamster_1920x1080_60fps.mp4':\n  Metadata:\n    major_brand     : isom\n    minor_version   : 512\n    compatible_brands: isomiso2avc1mp41\n    encoder         : Lavf54.28.101\n  Duration: 00:00:05.00, start: 0.000000, bitrate: 208485 kb/s\n  Stream #0:0[0x1](und): Video: h264 (High 4:4:4 Predictive) (avc1 / 0x31637661), yuv420p(progressive), 1920x1080, 208481 kb/s, 60 fps, 60 tbr, 60 tbn (default)\n    Metadata:\n      handler_name    : VideoHandler\n      vendor_id       : [0][0][0][0]\n[out#0/mp4 @ 0000025f4eaeae00] Codec AVOption b:a (set bitrate (in bits/s)) has not been used for any stream. The most likely reason is either wrong type (e.g. a video option with no video streams) or that it is a private option of some decoder which was not actually used for any stream.\nStream mapping:\n  Stream #0:0 -> #0:0 (h264 (native) -> hevc (libx265))\nPress [q] to stop, [?] for help\n[libx265 @ 0000025f4f0c07c0] Unknown option: \"aq-mode.\nx265 [info]: HEVC encoder version 4.1+190-8f11c33ac\nx265 [info]: build info [Windows][GCC 15.1.0][64 bit] 10bit\nx265 [info]: using cpu capabilities: MMX2 SSE2Fast LZCNT SSSE3 SSE4.2 AVX FMA3 BMI2 AVX2\nx265 [info]: Main 10 profile, Level-4.1 (Main tier)\nx265 [info]: Thread pool created using 12 threads\nx265 [info]: Slices                              : 1\nx265 [info]: frame threads / pool features       : 3 / wpp(17 rows)\nx265 [info]: Coding QT: max CU size, min CU size : 64 / 8\nx265 [info]: Residual QT: max TU size, max depth : 32 / 1 inter / 1 intra\nx265 [info]: ME / range / subpel / merge         : star / 57 / 3 / 3\nx265 [info]: Keyframe min / max / scenecut / bias  : 25 / 250 / 40 / 5.00 \nx265 [info]: Lookahead / bframes / badapt        : 25 / 4 / 2\nx265 [info]: b-pyramid / weightp / weightb       : 1 / 1 / 0\nx265 [info]: References / ref-limit  cu / depth  : 4 / on / on\nx265 [info]: AQ: mode / str / qg-size / cu-tree  : 2 / 1.0 / 32 / 1\nx265 [info]: Rate Control / qCompress            : ABR-4000 kbps / 0.60\nx265 [info]: VBV/HRD buffer / max-rate / init    : 4000 / 4000 / 0.750\nx265 [info]: tools: rect limit-modes rd=4 psy-rd=2.00 rdoq=2 psy-rdoq=1.00\nx265 [info]: tools: rskip mode=1 signhide tmvp strong-intra-smoothing lslices=4\nx265 [info]: tools: deblock sao dhdr10-info\nOutput #0, mp4, to 'C:\\Users\\Peter\\Desktop\\stuff\\MIUN\\quantitative_research\\video_compression\\compressed_videos\\BVI-HD\\hevc\\4\\Hamster_1920x1080_60fps_hevc.mp4':\n  Metadata:\n    major_brand     : isom\n    minor_version   : 512\n    compatible_brands: isomiso2avc1mp41\n    encoder         : Lavf62.3.100\n  Stream #0:0(und): Video: hevc (hev1 / 0x31766568), yuv420p10le(tv, progressive), 1920x1080, q=2-31, 4000 kb/s, 60 fps, 15360 tbn (default)\n    Metadata:\n      encoder         : Lavc62.11.100 libx265\n      handler_name    : VideoHandler\n      vendor_id       : [0][0][0][0]\n    Side data:\n      cpb: bitrate max/min/avg: 4000000/0/4000000 buffer size: 4000000 vbv_delay: N/A\nframe=    0 fps=0.0 q=0.0 size=       0KiB time=N/A bitrate=N/A speed=N/A elapsed=0:00:00.52    \nframe=    0 fps=0.0 q=0.0 size=       0KiB time=N/A bitrate=N/A speed=N/A elapsed=0:00:01.10    \nframe=    0 fps=0.0 q=0.0 size=       0KiB time=N/A bitrate=N/A speed=N/A elapsed=0:00:01.60    \nframe=    0 fps=0.0 q=0.0 size=       0KiB time=N/A bitrate=N/A speed=N/A elapsed=0:00:02.13    \nframe=    0 fps=0.0 q=0.0 size=       0KiB time=N/A bitrate=N/A speed=N/A elapsed=0:00:02.65    \nframe=    0 fps=0.0 q=0.0 size=       0KiB time=N/A bitrate=N/A speed=N/A elapsed=0:00:03.20    \nframe=    0 fps=0.0 q=0.0 size=       0KiB time=N/A bitrate=N/A speed=N/A elapsed=0:00:03.74    \nframe=    0 fps=0.0 q=0.0 size=       0KiB time=N/A bitrate=N/A speed=N/A elapsed=0:00:04.27    \nframe=    0 fps=0.0 q=0.0 size=       0KiB time=N/A bitrate=N/A speed=N/A elapsed=0:00:04.79    \nframe=    0 fps=0.0 q=0.0 size=       0KiB time=N/A bitrate=N/A speed=N/A elapsed=0:00:05.31    \nframe=    1 fps=0.2 q=32.9 size=       0KiB time=-00:00:00.01 bitrate=N/A speed=N/A elapsed=0:00:05.82    \nframe=    2 fps=0.3 q=35.0 size=       0KiB time=00:00:00.00 bitrate=N/A speed=   0x elapsed=0:00:06.34    \nframe=    3 fps=0.4 q=36.8 size=       0KiB time=00:00:00.01 bitrate=  21.1kbits/s speed=0.00243x elapsed=0:00:06.86    \nframe=    3 fps=0.4 q=36.8 size=       0KiB time=00:00:00.01 bitrate=  21.1kbits/s speed=0.00226x elapsed=0:00:07.37    \nframe=    4 fps=0.5 q=37.2 size=       0KiB time=00:00:00.03 bitrate=  10.6kbits/s speed=0.00422x elapsed=0:00:07.89    \nframe=    4 fps=0.5 q=37.2 size=       0KiB time=00:00:00.03 bitrate=  10.6kbits/s speed=0.00396x elapsed=0:00:08.42    \nframe=    5 fps=0.6 q=35.7 size=       0KiB time=00:00:00.05 bitrate=   7.0kbits/s speed=0.00559x elapsed=0:00:08.94    \nframe=    5 fps=0.5 q=35.7 size=       0KiB time=00:00:00.05 bitrate=   7.0kbits/s speed=0.00528x elapsed=0:00:09.46    \nframe=    6 fps=0.6 q=30.4 size=       0KiB time=00:00:00.06 bitrate=   5.3kbits/s speed=0.00668x elapsed=0:00:09.97    \nframe=    6 fps=0.6 q=30.4 size=       0KiB time=00:00:00.06 bitrate=   5.3kbits/s speed=0.00636x elapsed=0:00:10.49    \nframe=    7 fps=0.6 q=33.5 size=       0KiB time=00:00:00.08 bitrate=   4.2kbits/s speed=0.00758x elapsed=0:00:11.00    \nframe=    8 fps=0.7 q=33.7 size=       0KiB time=00:00:00.10 bitrate=   3.5kbits/s speed=0.00868x elapsed=0:00:11.51    \nframe=    9 fps=0.7 q=34.0 size=       0KiB time=00:00:00.11 bitrate=   3.0kbits/s speed=0.00969x elapsed=0:00:12.04    \nframe=    9 fps=0.7 q=34.0 size=       0KiB time=00:00:00.11 bitrate=   3.0kbits/s speed=0.0093x elapsed=0:00:12.54    \nframe=    9 fps=0.7 q=34.0 size=       0KiB time=00:00:00.11 bitrate=   3.0kbits/s speed=0.00892x elapsed=0:00:13.07    \nframe=    9 fps=0.7 q=34.0 size=       0KiB time=00:00:00.11 bitrate=   3.0kbits/s speed=0.00857x elapsed=0:00:13.60    \nframe=   10 fps=0.7 q=34.8 size=       0KiB time=00:00:00.13 bitrate=   2.6kbits/s speed=0.00942x elapsed=0:00:14.14    \nframe=   11 fps=0.7 q=28.8 size=       0KiB time=00:00:00.15 bitrate=   2.3kbits/s speed=0.0102x elapsed=0:00:14.67    \nframe=   11 fps=0.7 q=28.8 size=       0KiB time=00:00:00.15 bitrate=   2.3kbits/s speed=0.00986x elapsed=0:00:15.22    \nframe=   12 fps=0.8 q=33.0 size=       0KiB time=00:00:00.16 bitrate=   2.1kbits/s speed=0.0106x elapsed=0:00:15.75    \nframe=   12 fps=0.7 q=33.0 size=       0KiB time=00:00:00.16 bitrate=   2.1kbits/s speed=0.0102x elapsed=0:00:16.26    \nframe=   13 fps=0.8 q=35.1 size=       0KiB time=00:00:00.18 bitrate=   1.9kbits/s speed=0.0109x elapsed=0:00:16.78    \nframe=   14 fps=0.8 q=34.5 size=       0KiB time=00:00:00.20 bitrate=   1.8kbits/s speed=0.0116x elapsed=0:00:17.29    \nframe=   14 fps=0.8 q=34.5 size=       0KiB time=00:00:00.20 bitrate=   1.8kbits/s speed=0.0112x elapsed=0:00:17.84    \nframe=   14 fps=0.8 q=34.5 size=       0KiB time=00:00:00.20 bitrate=   1.8kbits/s speed=0.0109x elapsed=0:00:18.38    \nframe=   15 fps=0.8 q=28.8 size=       0KiB time=00:00:00.21 bitrate=   1.6kbits/s speed=0.0115x elapsed=0:00:18.91    \nframe=   16 fps=0.8 q=29.9 size=       0KiB time=00:00:00.23 bitrate=   1.5kbits/s speed=0.012x elapsed=0:00:19.47    \nframe=   16 fps=0.8 q=29.9 size=       0KiB time=00:00:00.23 bitrate=   1.5kbits/s speed=0.0117x elapsed=0:00:20.02    \nframe=   16 fps=0.8 q=29.9 size=       0KiB time=00:00:00.23 bitrate=   1.5kbits/s speed=0.0114x elapsed=0:00:20.55    \nframe=   17 fps=0.8 q=33.9 size=       0KiB time=00:00:00.25 bitrate=   1.4kbits/s speed=0.0118x elapsed=0:00:21.10    \nframe=   18 fps=0.8 q=33.8 size=       0KiB time=00:00:00.26 bitrate=   1.3kbits/s speed=0.0123x elapsed=0:00:21.67    \nframe=   18 fps=0.8 q=33.8 size=       0KiB time=00:00:00.26 bitrate=   1.3kbits/s speed=0.012x elapsed=0:00:22.22    \nframe=   18 fps=0.8 q=33.8 size=       0KiB time=00:00:00.26 bitrate=   1.3kbits/s speed=0.0117x elapsed=0:00:22.73    \nframe=   18 fps=0.8 q=33.8 size=       0KiB time=00:00:00.26 bitrate=   1.3kbits/s speed=0.0115x elapsed=0:00:23.26    \nframe=   19 fps=0.8 q=33.9 size=       0KiB time=00:00:00.28 bitrate=   1.2kbits/s speed=0.0119x elapsed=0:00:23.82    \nframe=   19 fps=0.8 q=33.9 size=       0KiB time=00:00:00.28 bitrate=   1.2kbits/s speed=0.0116x elapsed=0:00:24.35    \nframe=   19 fps=0.8 q=33.9 size=       0KiB time=00:00:00.28 bitrate=   1.2kbits/s speed=0.0114x elapsed=0:00:24.90    \nframe=   20 fps=0.8 q=28.7 size=       0KiB time=00:00:00.30 bitrate=   1.2kbits/s speed=0.0118x elapsed=0:00:25.45    \nframe=   20 fps=0.8 q=28.7 size=       0KiB time=00:00:00.30 bitrate=   1.2kbits/s speed=0.0115x elapsed=0:00:25.98    \nframe=   21 fps=0.8 q=31.8 size=       0KiB time=00:00:00.31 bitrate=   1.1kbits/s speed=0.0119x elapsed=0:00:26.53    \nframe=   21 fps=0.8 q=31.8 size=       0KiB time=00:00:00.31 bitrate=   1.1kbits/s speed=0.0117x elapsed=0:00:27.04    \nframe=   21 fps=0.8 q=31.8 size=       0KiB time=00:00:00.31 bitrate=   1.1kbits/s speed=0.0115x elapsed=0:00:27.56    \nframe=   22 fps=0.8 q=33.8 size=       0KiB time=00:00:00.33 bitrate=   1.1kbits/s speed=0.0118x elapsed=0:00:28.13    \nframe=   22 fps=0.8 q=33.8 size=       0KiB time=00:00:00.33 bitrate=   1.1kbits/s speed=0.0116x elapsed=0:00:28.66    \nframe=   23 fps=0.8 q=33.6 size=       0KiB time=00:00:00.35 bitrate=   1.0kbits/s speed=0.012x elapsed=0:00:29.23    \nframe=   24 fps=0.8 q=28.5 size=       0KiB time=00:00:00.36 bitrate=   1.0kbits/s speed=0.0123x elapsed=0:00:29.78    \nframe=   24 fps=0.8 q=28.5 size=       0KiB time=00:00:00.36 bitrate=   1.0kbits/s speed=0.0121x elapsed=0:00:30.36    \nframe=   24 fps=0.8 q=28.5 size=       0KiB time=00:00:00.36 bitrate=   1.0kbits/s speed=0.0118x elapsed=0:00:30.95    \nframe=   25 fps=0.8 q=31.1 size=       0KiB time=00:00:00.38 bitrate=   0.9kbits/s speed=0.0122x elapsed=0:00:31.52    \nframe=   25 fps=0.8 q=31.1 size=       0KiB time=00:00:00.38 bitrate=   0.9kbits/s speed=0.0119x elapsed=0:00:32.11    \nframe=   25 fps=0.8 q=31.1 size=       0KiB time=00:00:00.38 bitrate=   0.9kbits/s speed=0.0117x elapsed=0:00:32.68    \nframe=   25 fps=0.8 q=31.1 size=       0KiB time=00:00:00.38 bitrate=   0.9kbits/s speed=0.0115x elapsed=0:00:33.23    \nframe=   26 fps=0.8 q=33.0 size=       0KiB time=00:00:00.40 bitrate=   0.9kbits/s speed=0.0118x elapsed=0:00:33.77    \nframe=   26 fps=0.8 q=33.0 size=       0KiB time=00:00:00.40 bitrate=   0.9kbits/s speed=0.0117x elapsed=0:00:34.30    \nframe=   26 fps=0.7 q=33.0 size=       0KiB time=00:00:00.40 bitrate=   0.9kbits/s speed=0.0115x elapsed=0:00:34.83    \nframe=   26 fps=0.7 q=33.0 size=       0KiB time=00:00:00.40 bitrate=   0.9kbits/s speed=0.0113x elapsed=0:00:35.35    \nframe=   26 fps=0.7 q=33.0 size=       0KiB time=00:00:00.40 bitrate=   0.9kbits/s speed=0.0111x elapsed=0:00:35.88    \nframe=   26 fps=0.7 q=33.0 size=       0KiB time=00:00:00.40 bitrate=   0.9kbits/s speed=0.011x elapsed=0:00:36.41    \nframe=   26 fps=0.7 q=33.0 size=       0KiB time=00:00:00.40 bitrate=   0.9kbits/s speed=0.0108x elapsed=0:00:36.92    \nframe=   26 fps=0.7 q=33.0 size=       0KiB time=00:00:00.40 bitrate=   0.9kbits/s speed=0.0107x elapsed=0:00:37.43    \nframe=   26 fps=0.7 q=33.0 size=       0KiB time=00:00:00.40 bitrate=   0.9kbits/s speed=0.0105x elapsed=0:00:37.98    \nframe=   26 fps=0.7 q=33.0 size=       0KiB time=00:00:00.40 bitrate=   0.9kbits/s speed=0.0104x elapsed=0:00:38.51    \nframe=   26 fps=0.7 q=33.0 size=       0KiB time=00:00:00.40 bitrate=   0.9kbits/s speed=0.0102x elapsed=0:00:39.03    \nframe=   26 fps=0.7 q=33.0 size=       0KiB time=00:00:00.40 bitrate=   0.9kbits/s speed=0.0101x elapsed=0:00:39.55    \nframe=   26 fps=0.6 q=33.0 size=       0KiB time=00:00:00.40 bitrate=   0.9kbits/s speed=0.00997x elapsed=0:00:40.10    \nframe=   27 fps=0.7 q=33.1 size=       0KiB time=00:00:00.41 bitrate=   0.8kbits/s speed=0.0102x elapsed=0:00:40.67    \nframe=   27 fps=0.7 q=33.1 size=       0KiB time=00:00:00.41 bitrate=   0.8kbits/s speed=0.0101x elapsed=0:00:41.20    \nframe=   27 fps=0.6 q=33.1 size=       0KiB time=00:00:00.41 bitrate=   0.8kbits/s speed=0.00998x elapsed=0:00:41.74    \nframe=   27 fps=0.6 q=33.1 size=       0KiB time=00:00:00.41 bitrate=   0.8kbits/s speed=0.00986x elapsed=0:00:42.26    \nframe=   27 fps=0.6 q=33.1 size=       0KiB time=00:00:00.41 bitrate=   0.8kbits/s speed=0.00973x elapsed=0:00:42.81    \nframe=   28 fps=0.6 q=28.4 size=       0KiB time=00:00:00.43 bitrate=   0.8kbits/s speed=0.00999x elapsed=0:00:43.39    \nframe=   28 fps=0.6 q=28.4 size=       0KiB time=00:00:00.43 bitrate=   0.8kbits/s speed=0.00986x elapsed=0:00:43.95    \nframe=   28 fps=0.6 q=28.4 size=       0KiB time=00:00:00.43 bitrate=   0.8kbits/s speed=0.00974x elapsed=0:00:44.48    \nframe=   29 fps=0.6 q=31.3 size=       0KiB time=00:00:00.45 bitrate=   0.8kbits/s speed=0.00999x elapsed=0:00:45.04    \nframe=   29 fps=0.6 q=31.3 size=       0KiB time=00:00:00.45 bitrate=   0.8kbits/s speed=0.00988x elapsed=0:00:45.56    \nframe=   30 fps=0.7 q=33.0 size=       0KiB time=00:00:00.46 bitrate=   0.8kbits/s speed=0.0101x elapsed=0:00:46.09    \nframe=   30 fps=0.6 q=33.0 size=       0KiB time=00:00:00.46 bitrate=   0.8kbits/s speed=0.01x elapsed=0:00:46.65    \nframe=   30 fps=0.6 q=33.0 size=       0KiB time=00:00:00.46 bitrate=   0.8kbits/s speed=0.00988x elapsed=0:00:47.25    \nframe=   30 fps=0.6 q=33.0 size=       0KiB time=00:00:00.46 bitrate=   0.8kbits/s speed=0.00975x elapsed=0:00:47.86    \nframe=   30 fps=0.6 q=33.0 size=       0KiB time=00:00:00.46 bitrate=   0.8kbits/s speed=0.00961x elapsed=0:00:48.56    \nframe=   30 fps=0.6 q=33.0 size=       0KiB time=00:00:00.46 bitrate=   0.8kbits/s speed=0.00948x elapsed=0:00:49.22    \nframe=   30 fps=0.6 q=33.0 size=       0KiB time=00:00:00.46 bitrate=   0.8kbits/s speed=0.00936x elapsed=0:00:49.84    \nframe=   30 fps=0.6 q=33.0 size=       0KiB time=00:00:00.46 bitrate=   0.8kbits/s speed=0.00925x elapsed=0:00:50.45    \nframe=   31 fps=0.6 q=33.3 size=       0KiB time=00:00:00.48 bitrate=   0.7kbits/s speed=0.00948x elapsed=0:00:51.00    \nframe=   31 fps=0.6 q=33.3 size=       0KiB time=00:00:00.48 bitrate=   0.7kbits/s speed=0.00937x elapsed=0:00:51.57    \nframe=   31 fps=0.6 q=33.3 size=       0KiB time=00:00:00.48 bitrate=   0.7kbits/s speed=0.00926x elapsed=0:00:52.17    \nframe=   31 fps=0.6 q=33.3 size=       0KiB time=00:00:00.48 bitrate=   0.7kbits/s speed=0.00916x elapsed=0:00:52.75    \nframe=   31 fps=0.6 q=33.3 size=       0KiB time=00:00:00.48 bitrate=   0.7kbits/s speed=0.00906x elapsed=0:00:53.33    \nframe=   31 fps=0.6 q=33.3 size=       0KiB time=00:00:00.48 bitrate=   0.7kbits/s speed=0.00897x elapsed=0:00:53.88    \nframe=   31 fps=0.6 q=33.3 size=       0KiB time=00:00:00.48 bitrate=   0.7kbits/s speed=0.00887x elapsed=0:00:54.52    \nframe=   31 fps=0.6 q=33.3 size=       0KiB time=00:00:00.48 bitrate=   0.7kbits/s speed=0.00877x elapsed=0:00:55.13    \nframe=   31 fps=0.6 q=33.3 size=       0KiB time=00:00:00.48 bitrate=   0.7kbits/s speed=0.00867x elapsed=0:00:55.75    \nframe=   31 fps=0.6 q=33.3 size=       0KiB time=00:00:00.48 bitrate=   0.7kbits/s speed=0.00858x elapsed=0:00:56.30    \nframe=   32 fps=0.6 q=28.3 size=       0KiB time=00:00:00.50 bitrate=   0.7kbits/s speed=0.0088x elapsed=0:00:56.84    \nframe=   32 fps=0.6 q=28.3 size=       0KiB time=00:00:00.50 bitrate=   0.7kbits/s speed=0.00871x elapsed=0:00:57.40    \nframe=   32 fps=0.6 q=28.3 size=       0KiB time=00:00:00.50 bitrate=   0.7kbits/s speed=0.00863x elapsed=0:00:57.95    \nframe=   32 fps=0.5 q=28.3 size=       0KiB time=00:00:00.50 bitrate=   0.7kbits/s speed=0.00855x elapsed=0:00:58.47    \nframe=   32 fps=0.5 q=28.3 size=       0KiB time=00:00:00.50 bitrate=   0.7kbits/s speed=0.00847x elapsed=0:00:59.00    \nframe=   33 fps=0.6 q=31.3 size=       0KiB time=00:00:00.51 bitrate=   0.7kbits/s speed=0.00868x elapsed=0:00:59.54    \nframe=   33 fps=0.5 q=31.3 size=       0KiB time=00:00:00.51 bitrate=   0.7kbits/s speed=0.00859x elapsed=0:01:00.14    \nframe=   33 fps=0.5 q=31.3 size=       0KiB time=00:00:00.51 bitrate=   0.7kbits/s speed=0.00852x elapsed=0:01:00.67    \nframe=   33 fps=0.5 q=31.3 size=       0KiB time=00:00:00.51 bitrate=   0.7kbits/s speed=0.00844x elapsed=0:01:01.20    \nframe=   33 fps=0.5 q=31.3 size=       0KiB time=00:00:00.51 bitrate=   0.7kbits/s speed=0.00837x elapsed=0:01:01.74    \nframe=   34 fps=0.5 q=33.2 size=       0KiB time=00:00:00.53 bitrate=   0.7kbits/s speed=0.00856x elapsed=0:01:02.28    \nframe=   34 fps=0.5 q=33.2 size=       0KiB time=00:00:00.53 bitrate=   0.7kbits/s speed=0.00849x elapsed=0:01:02.83    \nframe=   34 fps=0.5 q=33.2 size=       0KiB time=00:00:00.53 bitrate=   0.7kbits/s speed=0.00842x elapsed=0:01:03.36    \nframe=   34 fps=0.5 q=33.2 size=       0KiB time=00:00:00.53 bitrate=   0.7kbits/s speed=0.00835x elapsed=0:01:03.90    \nframe=   34 fps=0.5 q=33.2 size=       0KiB time=00:00:00.53 bitrate=   0.7kbits/s speed=0.00828x elapsed=0:01:04.44    \nframe=   34 fps=0.5 q=33.2 size=       0KiB time=00:00:00.53 bitrate=   0.7kbits/s speed=0.0082x elapsed=0:01:05.00    \nframe=   34 fps=0.5 q=33.2 size=       0KiB time=00:00:00.53 bitrate=   0.7kbits/s speed=0.00814x elapsed=0:01:05.51    \nframe=   35 fps=0.5 q=33.2 size=       0KiB time=00:00:00.55 bitrate=   0.6kbits/s speed=0.00832x elapsed=0:01:06.07    \nframe=   36 fps=0.5 q=28.1 size=       0KiB time=00:00:00.56 bitrate=   0.6kbits/s speed=0.0085x elapsed=0:01:06.67    \nframe=   36 fps=0.5 q=28.1 size=       0KiB time=00:00:00.56 bitrate=   0.6kbits/s speed=0.00843x elapsed=0:01:07.23    \nframe=   37 fps=0.5 q=31.3 size=     256KiB time=00:00:00.58 bitrate=3595.7kbits/s speed=0.0086x elapsed=0:01:07.79    \nframe=   37 fps=0.5 q=31.3 size=     256KiB time=00:00:00.58 bitrate=3595.7kbits/s speed=0.00853x elapsed=0:01:08.34    \nframe=   37 fps=0.5 q=31.3 size=     256KiB time=00:00:00.58 bitrate=3595.7kbits/s speed=0.00847x elapsed=0:01:08.89    \nframe=   38 fps=0.5 q=33.3 size=     256KiB time=00:00:00.60 bitrate=3495.8kbits/s speed=0.00864x elapsed=0:01:09.42    \nframe=   38 fps=0.5 q=33.3 size=     256KiB time=00:00:00.60 bitrate=3495.8kbits/s speed=0.00858x elapsed=0:01:09.93    \nframe=   38 fps=0.5 q=33.3 size=     256KiB time=00:00:00.60 bitrate=3495.8kbits/s speed=0.00851x elapsed=0:01:10.51    \nframe=   38 fps=0.5 q=33.3 size=     256KiB time=00:00:00.60 bitrate=3495.8kbits/s speed=0.00844x elapsed=0:01:11.12    \nframe=   38 fps=0.5 q=33.3 size=     256KiB time=00:00:00.60 bitrate=3495.8kbits/s speed=0.00837x elapsed=0:01:11.64    \nframe=   38 fps=0.5 q=33.3 size=     256KiB time=00:00:00.60 bitrate=3495.8kbits/s speed=0.00831x elapsed=0:01:12.21    \nframe=   38 fps=0.5 q=33.3 size=     256KiB time=00:00:00.60 bitrate=3495.8kbits/s speed=0.00824x elapsed=0:01:12.77    \nframe=   39 fps=0.5 q=33.2 size=     256KiB time=00:00:00.61 bitrate=3401.4kbits/s speed=0.00841x elapsed=0:01:13.34    \nframe=   40 fps=0.5 q=28.3 size=     256KiB time=00:00:00.63 bitrate=3311.9kbits/s speed=0.00857x elapsed=0:01:13.88    \nframe=   40 fps=0.5 q=28.3 size=     256KiB time=00:00:00.63 bitrate=3311.9kbits/s speed=0.00851x elapsed=0:01:14.42    \nframe=   40 fps=0.5 q=28.3 size=     256KiB time=00:00:00.63 bitrate=3311.9kbits/s speed=0.00845x elapsed=0:01:14.97    \nframe=   40 fps=0.5 q=28.3 size=     256KiB time=00:00:00.63 bitrate=3311.9kbits/s speed=0.00838x elapsed=0:01:15.56    \nframe=   40 fps=0.5 q=28.3 size=     256KiB time=00:00:00.63 bitrate=3311.9kbits/s speed=0.00832x elapsed=0:01:16.11    \nframe=   40 fps=0.5 q=28.3 size=     256KiB time=00:00:00.63 bitrate=3311.9kbits/s speed=0.00826x elapsed=0:01:16.64    \nframe=   40 fps=0.5 q=28.3 size=     256KiB time=00:00:00.63 bitrate=3311.9kbits/s speed=0.00821x elapsed=0:01:17.16    \nframe=   40 fps=0.5 q=28.3 size=     256KiB time=00:00:00.63 bitrate=3311.9kbits/s speed=0.00815x elapsed=0:01:17.67    \nframe=   40 fps=0.5 q=28.3 size=     256KiB time=00:00:00.63 bitrate=3311.9kbits/s speed=0.0081x elapsed=0:01:18.20    \nframe=   41 fps=0.5 q=31.1 size=     256KiB time=00:00:00.65 bitrate=3226.9kbits/s speed=0.00825x elapsed=0:01:18.74    \nframe=   41 fps=0.5 q=31.1 size=     256KiB time=00:00:00.65 bitrate=3226.9kbits/s speed=0.00819x elapsed=0:01:19.31    \nframe=   41 fps=0.5 q=31.1 size=     256KiB time=00:00:00.65 bitrate=3226.9kbits/s speed=0.00814x elapsed=0:01:19.87    \nframe=   42 fps=0.5 q=33.0 size=     256KiB time=00:00:00.66 bitrate=3146.3kbits/s speed=0.00829x elapsed=0:01:20.43    \nframe=   42 fps=0.5 q=33.0 size=     256KiB time=00:00:00.66 bitrate=3146.3kbits/s speed=0.00822x elapsed=0:01:21.12    \nframe=   43 fps=0.5 q=33.1 size=     256KiB time=00:00:00.68 bitrate=3069.5kbits/s speed=0.00836x elapsed=0:01:21.70    \nframe=   44 fps=0.5 q=28.3 size=     256KiB time=00:00:00.70 bitrate=2996.4kbits/s speed=0.00851x elapsed=0:01:22.27    \nframe=   44 fps=0.5 q=28.3 size=     256KiB time=00:00:00.70 bitrate=2996.4kbits/s speed=0.00845x elapsed=0:01:22.86    \nframe=   45 fps=0.5 q=32.0 size=     256KiB time=00:00:00.70 bitrate=2996.4kbits/s speed=0.00839x elapsed=0:01:23.45    \nframe=   45 fps=0.5 q=32.0 size=     256KiB time=00:00:00.71 bitrate=2926.7kbits/s speed=0.00852x elapsed=0:01:24.12    \nframe=   45 fps=0.5 q=32.0 size=     256KiB time=00:00:00.71 bitrate=2926.7kbits/s speed=0.00846x elapsed=0:01:24.68    \nframe=   46 fps=0.5 q=33.0 size=     256KiB time=00:00:00.73 bitrate=2860.2kbits/s speed=0.0086x elapsed=0:01:25.30    \nframe=   48 fps=0.6 q=32.8 size=     256KiB time=00:00:00.76 bitrate=2735.9kbits/s speed=0.00892x elapsed=0:01:25.91    \nframe=   48 fps=0.6 q=32.8 size=     256KiB time=00:00:00.76 bitrate=2735.9kbits/s speed=0.00886x elapsed=0:01:26.55    \nframe=   49 fps=0.6 q=28.0 size=     256KiB time=00:00:00.78 bitrate=2677.7kbits/s speed=0.00899x elapsed=0:01:27.13    \nframe=   49 fps=0.6 q=28.0 size=     256KiB time=00:00:00.78 bitrate=2677.7kbits/s speed=0.00893x elapsed=0:01:27.71    \nframe=   49 fps=0.6 q=28.0 size=     256KiB time=00:00:00.78 bitrate=2677.7kbits/s speed=0.00887x elapsed=0:01:28.27    \nframe=   49 fps=0.6 q=28.0 size=     256KiB time=00:00:00.78 bitrate=2677.7kbits/s speed=0.00882x elapsed=0:01:28.79    \nframe=   49 fps=0.5 q=28.0 size=     256KiB time=00:00:00.78 bitrate=2677.7kbits/s speed=0.00877x elapsed=0:01:29.32    \nframe=   50 fps=0.6 q=31.2 size=     256KiB time=00:00:00.80 bitrate=2621.9kbits/s speed=0.0089x elapsed=0:01:29.84    \nframe=   50 fps=0.6 q=31.2 size=     256KiB time=00:00:00.80 bitrate=2621.9kbits/s speed=0.00885x elapsed=0:01:30.38    \nframe=   50 fps=0.5 q=31.2 size=     256KiB time=00:00:00.80 bitrate=2621.9kbits/s speed=0.00879x elapsed=0:01:30.98    \nframe=   50 fps=0.5 q=31.2 size=     256KiB time=00:00:00.80 bitrate=2621.9kbits/s speed=0.00873x elapsed=0:01:31.59    \nframe=   50 fps=0.5 q=31.2 size=     256KiB time=00:00:00.80 bitrate=2621.9kbits/s speed=0.00868x elapsed=0:01:32.16    \nframe=   50 fps=0.5 q=31.2 size=     256KiB time=00:00:00.80 bitrate=2621.9kbits/s speed=0.00862x elapsed=0:01:32.83    \nframe=   51 fps=0.5 q=33.3 size=     256KiB time=00:00:00.81 bitrate=2568.4kbits/s speed=0.00875x elapsed=0:01:33.36    \nframe=   51 fps=0.5 q=33.3 size=     256KiB time=00:00:00.81 bitrate=2568.4kbits/s speed=0.0087x elapsed=0:01:33.89    \nframe=   51 fps=0.5 q=33.3 size=     256KiB time=00:00:00.81 bitrate=2568.4kbits/s speed=0.00865x elapsed=0:01:34.41    \nframe=   52 fps=0.5 q=33.3 size=     256KiB time=00:00:00.83 bitrate=2517.0kbits/s speed=0.00878x elapsed=0:01:34.94    \nframe=   52 fps=0.5 q=33.3 size=     256KiB time=00:00:00.83 bitrate=2517.0kbits/s speed=0.00873x elapsed=0:01:35.49    \nframe=   52 fps=0.5 q=33.3 size=     256KiB time=00:00:00.83 bitrate=2517.0kbits/s speed=0.00868x elapsed=0:01:36.03    \nframe=   52 fps=0.5 q=33.3 size=     256KiB time=00:00:00.83 bitrate=2517.0kbits/s speed=0.00863x elapsed=0:01:36.61    \nframe=   53 fps=0.5 q=28.3 size=     256KiB time=00:00:00.85 bitrate=2467.7kbits/s speed=0.00875x elapsed=0:01:37.17    \nframe=   54 fps=0.6 q=30.9 size=     256KiB time=00:00:00.86 bitrate=2420.2kbits/s speed=0.00887x elapsed=0:01:37.73    \nframe=   54 fps=0.5 q=30.9 size=     256KiB time=00:00:00.86 bitrate=2420.2kbits/s speed=0.00881x elapsed=0:01:38.32    \nframe=   54 fps=0.5 q=30.9 size=     256KiB time=00:00:00.86 bitrate=2420.2kbits/s speed=0.00876x elapsed=0:01:38.89    \nframe=   54 fps=0.5 q=30.9 size=     256KiB time=00:00:00.86 bitrate=2420.2kbits/s speed=0.00871x elapsed=0:01:39.53    \nframe=   55 fps=0.5 q=33.5 size=     256KiB time=00:00:00.88 bitrate=2374.5kbits/s speed=0.00883x elapsed=0:01:40.07    \nframe=   56 fps=0.6 q=33.0 size=     256KiB time=00:00:00.90 bitrate=2330.6kbits/s speed=0.00894x elapsed=0:01:40.64    \nframe=   57 fps=0.6 q=27.7 size=     256KiB time=00:00:00.91 bitrate=2288.2kbits/s speed=0.00906x elapsed=0:01:41.21    \nframe=   57 fps=0.6 q=27.7 size=     256KiB time=00:00:00.91 bitrate=2288.2kbits/s speed=0.00901x elapsed=0:01:41.74    \nframe=   57 fps=0.6 q=27.7 size=     256KiB time=00:00:00.91 bitrate=2288.2kbits/s speed=0.00896x elapsed=0:01:42.28    \nframe=   57 fps=0.6 q=27.7 size=     256KiB time=00:00:00.91 bitrate=2288.2kbits/s speed=0.00892x elapsed=0:01:42.82    \nframe=   58 fps=0.6 q=31.2 size=     256KiB time=00:00:00.93 bitrate=2247.3kbits/s speed=0.00903x elapsed=0:01:43.36    \nframe=   58 fps=0.6 q=31.2 size=     256KiB time=00:00:00.93 bitrate=2247.3kbits/s speed=0.00898x elapsed=0:01:43.87    \nframe=   58 fps=0.6 q=31.2 size=     256KiB time=00:00:00.93 bitrate=2247.3kbits/s speed=0.00893x elapsed=0:01:44.48    \nframe=   59 fps=0.6 q=33.9 size=     256KiB time=00:00:00.95 bitrate=2207.9kbits/s speed=0.00904x elapsed=0:01:45.10    \nframe=   60 fps=0.6 q=27.8 size=     256KiB time=00:00:00.96 bitrate=2169.8kbits/s speed=0.00914x elapsed=0:01:45.72    \nframe=   61 fps=0.6 q=32.2 size=     256KiB time=00:00:00.98 bitrate=2133.1kbits/s speed=0.00925x elapsed=0:01:46.26    \nframe=   62 fps=0.6 q=34.0 size=     256KiB time=00:00:01.00 bitrate=2097.5kbits/s speed=0.00936x elapsed=0:01:46.79    \nframe=   62 fps=0.6 q=34.0 size=     256KiB time=00:00:01.00 bitrate=2097.5kbits/s speed=0.00931x elapsed=0:01:47.36    \nframe=   62 fps=0.6 q=34.0 size=     256KiB time=00:00:01.00 bitrate=2097.5kbits/s speed=0.00926x elapsed=0:01:47.96    \nframe=   62 fps=0.6 q=34.0 size=     256KiB time=00:00:01.00 bitrate=2097.5kbits/s speed=0.00922x elapsed=0:01:48.49    \nframe=   62 fps=0.6 q=34.0 size=     256KiB time=00:00:01.00 bitrate=2097.5kbits/s speed=0.00917x elapsed=0:01:49.02    \nframe=   64 fps=0.6 q=33.3 size=     256KiB time=00:00:01.01 bitrate=2063.1kbits/s speed=0.00928x elapsed=0:01:49.60    \nframe=   64 fps=0.6 q=33.3 size=     256KiB time=00:00:01.03 bitrate=2029.8kbits/s speed=0.00938x elapsed=0:01:50.16    \nframe=   64 fps=0.6 q=33.3 size=     256KiB time=00:00:01.03 bitrate=2029.8kbits/s speed=0.00933x elapsed=0:01:50.69    \nframe=   64 fps=0.6 q=33.3 size=     256KiB time=00:00:01.03 bitrate=2029.8kbits/s speed=0.00929x elapsed=0:01:51.27    \nframe=   64 fps=0.6 q=33.3 size=     256KiB time=00:00:01.03 bitrate=2029.8kbits/s speed=0.00924x elapsed=0:01:51.84    \nframe=   65 fps=0.6 q=28.9 size=     256KiB time=00:00:01.05 bitrate=1997.6kbits/s speed=0.00934x elapsed=0:01:52.40    \nframe=   66 fps=0.6 q=32.6 size=     256KiB time=00:00:01.06 bitrate=1966.4kbits/s speed=0.00944x elapsed=0:01:52.95    \nframe=   66 fps=0.6 q=32.6 size=     256KiB time=00:00:01.06 bitrate=1966.4kbits/s speed=0.0094x elapsed=0:01:53.49    \nframe=   66 fps=0.6 q=32.6 size=     256KiB time=00:00:01.06 bitrate=1966.4kbits/s speed=0.00935x elapsed=0:01:54.06    \nframe=   66 fps=0.6 q=32.6 size=     256KiB time=00:00:01.06 bitrate=1966.4kbits/s speed=0.0093x elapsed=0:01:54.70    \nframe=   66 fps=0.6 q=32.6 size=     256KiB time=00:00:01.06 bitrate=1966.4kbits/s speed=0.00925x elapsed=0:01:55.33    \nframe=   66 fps=0.6 q=32.6 size=     256KiB time=00:00:01.06 bitrate=1966.4kbits/s speed=0.00921x elapsed=0:01:55.86    \nframe=   66 fps=0.6 q=32.6 size=     256KiB time=00:00:01.06 bitrate=1966.4kbits/s speed=0.00916x elapsed=0:01:56.48    \nframe=   67 fps=0.6 q=33.6 size=     256KiB time=00:00:01.08 bitrate=1936.2kbits/s speed=0.00925x elapsed=0:01:57.06    \nframe=   67 fps=0.6 q=33.6 size=     256KiB time=00:00:01.08 bitrate=1936.2kbits/s speed=0.00921x elapsed=0:01:57.62    \nframe=   67 fps=0.6 q=33.6 size=     256KiB time=00:00:01.08 bitrate=1936.2kbits/s speed=0.00916x elapsed=0:01:58.24    \nframe=   67 fps=0.6 q=33.6 size=     256KiB time=00:00:01.08 bitrate=1936.2kbits/s speed=0.00912x elapsed=0:01:58.82    \nframe=   67 fps=0.6 q=33.6 size=     256KiB time=00:00:01.08 bitrate=1936.2kbits/s speed=0.00907x elapsed=0:01:59.48    \nframe=   67 fps=0.6 q=33.6 size=     256KiB time=00:00:01.08 bitrate=1936.2kbits/s speed=0.00902x elapsed=0:02:00.06    \nframe=   67 fps=0.6 q=33.6 size=     256KiB time=00:00:01.08 bitrate=1936.2kbits/s speed=0.00898x elapsed=0:02:00.63    \nframe=   67 fps=0.6 q=33.6 size=     256KiB time=00:00:01.08 bitrate=1936.2kbits/s speed=0.00894x elapsed=0:02:01.21    \nframe=   67 fps=0.6 q=33.6 size=     256KiB time=00:00:01.08 bitrate=1936.2kbits/s speed=0.0089x elapsed=0:02:01.75    \nframe=   67 fps=0.5 q=33.6 size=     256KiB time=00:00:01.08 bitrate=1936.2kbits/s speed=0.00886x elapsed=0:02:02.29    \nframe=   68 fps=0.6 q=33.1 size=     256KiB time=00:00:01.10 bitrate=1906.8kbits/s speed=0.00896x elapsed=0:02:02.81    \nframe=   69 fps=0.6 q=33.5 size=     512KiB time=00:00:01.11 bitrate=3756.4kbits/s speed=0.00905x elapsed=0:02:03.33    \nframe=   70 fps=0.6 q=28.3 size=     512KiB time=00:00:01.13 bitrate=3701.2kbits/s speed=0.00915x elapsed=0:02:03.84    \nframe=   70 fps=0.6 q=28.3 size=     512KiB time=00:00:01.13 bitrate=3701.2kbits/s speed=0.00911x elapsed=0:02:04.36    \nframe=   71 fps=0.6 q=33.2 size=     512KiB time=00:00:01.15 bitrate=3647.5kbits/s speed=0.00921x elapsed=0:02:04.90    \nframe=   71 fps=0.6 q=33.2 size=     512KiB time=00:00:01.15 bitrate=3647.5kbits/s speed=0.00917x elapsed=0:02:05.42    \nframe=   71 fps=0.6 q=33.2 size=     512KiB time=00:00:01.15 bitrate=3647.5kbits/s speed=0.00913x elapsed=0:02:05.95    \nframe=   72 fps=0.6 q=28.1 size=     512KiB time=00:00:01.16 bitrate=3595.4kbits/s speed=0.00922x elapsed=0:02:06.47    \nframe=   72 fps=0.6 q=28.1 size=     512KiB time=00:00:01.16 bitrate=3595.4kbits/s speed=0.00918x elapsed=0:02:07.04    \nframe=   73 fps=0.6 q=30.8 size=     512KiB time=00:00:01.18 bitrate=3544.8kbits/s speed=0.00927x elapsed=0:02:07.64    \nframe=   73 fps=0.6 q=30.8 size=     512KiB time=00:00:01.18 bitrate=3544.8kbits/s speed=0.00923x elapsed=0:02:08.24    \nframe=   73 fps=0.6 q=30.8 size=     512KiB time=00:00:01.18 bitrate=3544.8kbits/s speed=0.00919x elapsed=0:02:08.79    \nframe=   74 fps=0.6 q=33.1 size=     512KiB time=00:00:01.20 bitrate=3495.5kbits/s speed=0.00928x elapsed=0:02:09.36    \nframe=   74 fps=0.6 q=33.1 size=     512KiB time=00:00:01.20 bitrate=3495.5kbits/s speed=0.00924x elapsed=0:02:09.89    \nframe=   74 fps=0.6 q=33.1 size=     512KiB time=00:00:01.20 bitrate=3495.5kbits/s speed=0.0092x elapsed=0:02:10.50    \nframe=   74 fps=0.6 q=33.1 size=     512KiB time=00:00:01.20 bitrate=3495.5kbits/s speed=0.00915x elapsed=0:02:11.14    \nframe=   74 fps=0.6 q=33.1 size=     512KiB time=00:00:01.20 bitrate=3495.5kbits/s speed=0.00911x elapsed=0:02:11.66    \nframe=   75 fps=0.6 q=33.3 size=     512KiB time=00:00:01.21 bitrate=3447.7kbits/s speed=0.0092x elapsed=0:02:12.25    \nframe=   75 fps=0.6 q=33.3 size=     512KiB time=00:00:01.21 bitrate=3447.7kbits/s speed=0.00916x elapsed=0:02:12.82    \nframe=   75 fps=0.6 q=33.3 size=     512KiB time=00:00:01.21 bitrate=3447.7kbits/s speed=0.00912x elapsed=0:02:13.36    \nframe=   75 fps=0.6 q=33.3 size=     512KiB time=00:00:01.21 bitrate=3447.7kbits/s speed=0.00909x elapsed=0:02:13.89    \nframe=   75 fps=0.6 q=33.3 size=     512KiB time=00:00:01.21 bitrate=3447.7kbits/s speed=0.00905x elapsed=0:02:14.46    \nframe=   76 fps=0.6 q=28.4 size=     512KiB time=00:00:01.23 bitrate=3401.1kbits/s speed=0.00913x elapsed=0:02:15.08    \nframe=   77 fps=0.6 q=31.2 size=     512KiB time=00:00:01.25 bitrate=3355.7kbits/s speed=0.00921x elapsed=0:02:15.70    \nframe=   77 fps=0.6 q=31.2 size=     512KiB time=00:00:01.25 bitrate=3355.7kbits/s speed=0.00916x elapsed=0:02:16.39    \nframe=   78 fps=0.6 q=33.3 size=     512KiB time=00:00:01.26 bitrate=3311.6kbits/s speed=0.00925x elapsed=0:02:16.99    \nframe=   78 fps=0.6 q=33.3 size=     512KiB time=00:00:01.26 bitrate=3311.6kbits/s speed=0.0092x elapsed=0:02:17.65    \nframe=   78 fps=0.6 q=33.3 size=     512KiB time=00:00:01.26 bitrate=3311.6kbits/s speed=0.00916x elapsed=0:02:18.23    \nframe=   78 fps=0.6 q=33.3 size=     512KiB time=00:00:01.26 bitrate=3311.6kbits/s speed=0.00913x elapsed=0:02:18.78    \nframe=   78 fps=0.6 q=33.3 size=     512KiB time=00:00:01.26 bitrate=3311.6kbits/s speed=0.00909x elapsed=0:02:19.31    \nframe=   79 fps=0.6 q=33.9 size=     512KiB time=00:00:01.28 bitrate=3268.6kbits/s speed=0.00917x elapsed=0:02:19.95    \nframe=   79 fps=0.6 q=33.9 size=     512KiB time=00:00:01.28 bitrate=3268.6kbits/s speed=0.00913x elapsed=0:02:20.50    \nframe=   79 fps=0.6 q=33.9 size=     512KiB time=00:00:01.28 bitrate=3268.6kbits/s speed=0.0091x elapsed=0:02:21.10    \nframe=   79 fps=0.6 q=33.9 size=     512KiB time=00:00:01.28 bitrate=3268.6kbits/s speed=0.00906x elapsed=0:02:21.68    \nframe=   80 fps=0.6 q=28.5 size=     512KiB time=00:00:01.30 bitrate=3226.7kbits/s speed=0.00913x elapsed=0:02:22.32    \nframe=   80 fps=0.6 q=28.5 size=     512KiB time=00:00:01.30 bitrate=3226.7kbits/s speed=0.00909x elapsed=0:02:22.98    \nframe=   81 fps=0.6 q=32.6 size=     512KiB time=00:00:01.30 bitrate=3226.7kbits/s speed=0.00906x elapsed=0:02:23.55    \nframe=   81 fps=0.6 q=32.6 size=     512KiB time=00:00:01.31 bitrate=3185.8kbits/s speed=0.00913x elapsed=0:02:24.18    \nframe=   82 fps=0.6 q=33.9 size=     512KiB time=00:00:01.33 bitrate=3146.0kbits/s speed=0.00921x elapsed=0:02:24.75    \nframe=   82 fps=0.6 q=33.9 size=     512KiB time=00:00:01.33 bitrate=3146.0kbits/s speed=0.00917x elapsed=0:02:25.35    \nframe=   82 fps=0.6 q=33.9 size=     512KiB time=00:00:01.33 bitrate=3146.0kbits/s speed=0.00914x elapsed=0:02:25.89    \nframe=   82 fps=0.6 q=33.9 size=     512KiB time=00:00:01.33 bitrate=3146.0kbits/s speed=0.00911x elapsed=0:02:26.42    \nframe=   83 fps=0.6 q=33.9 size=     512KiB time=00:00:01.35 bitrate=3107.2kbits/s speed=0.00919x elapsed=0:02:26.97    \nframe=   83 fps=0.6 q=33.9 size=     512KiB time=00:00:01.35 bitrate=3107.2kbits/s speed=0.00914x elapsed=0:02:27.64    \nframe=   83 fps=0.6 q=33.9 size=     512KiB time=00:00:01.35 bitrate=3107.2kbits/s speed=0.0091x elapsed=0:02:28.27    \nframe=   83 fps=0.6 q=33.9 size=     512KiB time=00:00:01.35 bitrate=3107.2kbits/s speed=0.00907x elapsed=0:02:28.85    \nframe=   83 fps=0.6 q=33.9 size=     512KiB time=00:00:01.35 bitrate=3107.2kbits/s speed=0.00903x elapsed=0:02:29.45    \nframe=   84 fps=0.6 q=33.9 size=     512KiB time=00:00:01.36 bitrate=3069.3kbits/s speed=0.00911x elapsed=0:02:30.04    \nframe=   84 fps=0.6 q=33.9 size=     512KiB time=00:00:01.36 bitrate=3069.3kbits/s speed=0.00908x elapsed=0:02:30.58    \nframe=   84 fps=0.6 q=33.9 size=     512KiB time=00:00:01.36 bitrate=3069.3kbits/s speed=0.00904x elapsed=0:02:31.14    \nframe=   84 fps=0.6 q=33.9 size=     512KiB time=00:00:01.36 bitrate=3069.3kbits/s speed=0.00901x elapsed=0:02:31.75    \nframe=   84 fps=0.6 q=33.9 size=     512KiB time=00:00:01.36 bitrate=3069.3kbits/s speed=0.00897x elapsed=0:02:32.35    \nframe=   84 fps=0.5 q=33.9 size=     512KiB time=00:00:01.36 bitrate=3069.3kbits/s speed=0.00894x elapsed=0:02:32.89    \nframe=   85 fps=0.6 q=28.4 size=     512KiB time=00:00:01.38 bitrate=3032.3kbits/s speed=0.00902x elapsed=0:02:33.41    \nframe=   85 fps=0.6 q=28.4 size=     512KiB time=00:00:01.38 bitrate=3032.3kbits/s speed=0.00898x elapsed=0:02:34.01    \nframe=   85 fps=0.5 q=28.4 size=     512KiB time=00:00:01.38 bitrate=3032.3kbits/s speed=0.00895x elapsed=0:02:34.59    \nframe=   85 fps=0.5 q=28.4 size=     512KiB time=00:00:01.38 bitrate=3032.3kbits/s speed=0.00891x elapsed=0:02:35.21    \nframe=   85 fps=0.5 q=28.4 size=     512KiB time=00:00:01.38 bitrate=3032.3kbits/s speed=0.00888x elapsed=0:02:35.76    \nframe=   85 fps=0.5 q=28.4 size=     512KiB time=00:00:01.38 bitrate=3032.3kbits/s speed=0.00885x elapsed=0:02:36.35    \nframe=   86 fps=0.5 q=31.7 size=     512KiB time=00:00:01.40 bitrate=2996.2kbits/s speed=0.00892x elapsed=0:02:37.00    \nframe=   86 fps=0.5 q=31.7 size=     512KiB time=00:00:01.40 bitrate=2996.2kbits/s speed=0.00889x elapsed=0:02:37.54    \nframe=   87 fps=0.6 q=34.1 size=     512KiB time=00:00:01.41 bitrate=2960.9kbits/s speed=0.00896x elapsed=0:02:38.16    \nframe=   87 fps=0.5 q=34.1 size=     512KiB time=00:00:01.41 bitrate=2960.9kbits/s speed=0.00892x elapsed=0:02:38.76    \nframe=   87 fps=0.5 q=34.1 size=     512KiB time=00:00:01.41 bitrate=2960.9kbits/s speed=0.00889x elapsed=0:02:39.28    \nframe=   87 fps=0.5 q=34.1 size=     512KiB time=00:00:01.41 bitrate=2960.9kbits/s speed=0.00886x elapsed=0:02:39.82    \nframe=   88 fps=0.5 q=34.1 size=     512KiB time=00:00:01.43 bitrate=2926.5kbits/s speed=0.00894x elapsed=0:02:40.38    \nframe=   88 fps=0.5 q=34.1 size=     512KiB time=00:00:01.43 bitrate=2926.5kbits/s speed=0.00891x elapsed=0:02:40.94    \nframe=   88 fps=0.5 q=34.1 size=     512KiB time=00:00:01.43 bitrate=2926.5kbits/s speed=0.00887x elapsed=0:02:41.52    \nframe=   88 fps=0.5 q=34.1 size=     512KiB time=00:00:01.43 bitrate=2926.5kbits/s speed=0.00884x elapsed=0:02:42.06    \nframe=   88 fps=0.5 q=34.1 size=     512KiB time=00:00:01.43 bitrate=2926.5kbits/s speed=0.00881x elapsed=0:02:42.64    \nframe=   89 fps=0.5 q=29.2 size=     512KiB time=00:00:01.45 bitrate=2892.9kbits/s speed=0.00888x elapsed=0:02:43.24    \nframe=   89 fps=0.5 q=29.2 size=     512KiB time=00:00:01.45 bitrate=2892.9kbits/s speed=0.00885x elapsed=0:02:43.81    \nframe=   89 fps=0.5 q=29.2 size=     512KiB time=00:00:01.45 bitrate=2892.9kbits/s speed=0.00882x elapsed=0:02:44.39    \nframe=   90 fps=0.5 q=31.7 size=     512KiB time=00:00:01.46 bitrate=2860.0kbits/s speed=0.00889x elapsed=0:02:44.95    \nframe=   90 fps=0.5 q=31.7 size=     512KiB time=00:00:01.46 bitrate=2860.0kbits/s speed=0.00886x elapsed=0:02:45.57    \nframe=   90 fps=0.5 q=31.7 size=     512KiB time=00:00:01.46 bitrate=2860.0kbits/s speed=0.00883x elapsed=0:02:46.17    \nframe=   90 fps=0.5 q=31.7 size=     512KiB time=00:00:01.46 bitrate=2860.0kbits/s speed=0.00879x elapsed=0:02:46.77    \nReceived > 3 system signals, hard exiting\n",
  "seconds": 167.8515224456787
}